<svg width="42" height="42" viewBox="0 0 42 42" fill="none" xmlns="http://www.w3.org/2000/svg">
<circle cx="21" cy="21" r="21" fill="#150F95" fill-opacity="0.1"/>
<path d="M21 17.125C22.224 17.125 23.2526 17.5547 24.0859 18.4141C24.9453 19.2474 25.375 20.276 25.375 21.5C25.375 22.6979 24.9453 23.7266 24.0859 24.5859C23.2526 25.4193 22.224 25.8359 21 25.8359C19.8021 25.8359 18.7734 25.4193 17.9141 24.5859C17.0807 23.7266 16.6641 22.6979 16.6641 21.5C16.6641 21.0833 16.7161 20.6797 16.8203 20.2891C17.1589 20.4714 17.5104 20.5625 17.875 20.5625C18.474 20.5625 18.9818 20.3542 19.3984 19.9375C19.8411 19.4948 20.0625 18.974 20.0625 18.375C20.0625 18.0104 19.9714 17.6589 19.7891 17.3203C20.1797 17.1901 20.5833 17.125 21 17.125ZM32.1328 20.9141C32.2109 21.0964 32.25 21.2917 32.25 21.5C32.25 21.7083 32.2109 21.9036 32.1328 22.0859C31.0391 24.1693 29.5026 25.849 27.5234 27.125C25.5443 28.375 23.3698 29 21 29C19.4375 29 17.9271 28.7135 16.4688 28.1406C15.0365 27.5417 13.7604 26.7344 12.6406 25.7188C11.5208 24.6771 10.5964 23.4661 9.86719 22.0859C9.78906 21.9036 9.75 21.7083 9.75 21.5C9.75 21.2917 9.78906 21.0964 9.86719 20.9141C10.9609 18.8307 12.4974 17.1641 14.4766 15.9141C16.4557 14.638 18.6302 14 21 14C23.3698 14 25.5443 14.638 27.5234 15.9141C29.5026 17.1641 31.0391 18.8307 32.1328 20.9141ZM21 27.125C22.9271 27.125 24.7109 26.6302 26.3516 25.6406C28.0182 24.625 29.3333 23.2448 30.2969 21.5C29.3333 19.7552 28.0182 18.388 26.3516 17.3984C24.7109 16.3828 22.9271 15.875 21 15.875C19.0729 15.875 17.276 16.3828 15.6094 17.3984C13.9688 18.388 12.6667 19.7552 11.7031 21.5C12.3281 22.6458 13.1224 23.6484 14.0859 24.5078C15.0495 25.3411 16.1172 25.9922 17.2891 26.4609C18.487 26.9036 19.724 27.125 21 27.125Z" fill="#150F95"/>
</svg>
