<svg width="192" height="42" viewBox="0 0 192 42" fill="none" xmlns="http://www.w3.org/2000/svg">
<g clip-path="url(#clip0)">
<path d="M30.9214 2.21466C26.9392 -0.109106 22.318 -1.05391 17.7742 -0.473277C13.2304 0.107294 9.01808 2.18092 5.79058 5.42589C2.56308 8.67085 0.500644 12.9059 -0.0766484 17.4742C-0.654105 22.0424 0.285799 26.6886 2.59715 30.692C4.90856 34.6954 8.46231 37.8325 12.7073 39.6165C16.9522 41.4008 21.651 41.7322 26.075 40.5596C30.499 39.3869 34.401 36.7757 37.1756 33.131C39.9504 29.4862 41.4427 25.0116 41.4214 20.4012L31.0054 20.3526C31.0162 22.6579 30.2699 24.8952 28.8826 26.7175C27.4953 28.5399 25.5442 29.8455 23.3323 30.4318C21.1203 31.0182 18.7709 30.8524 16.6484 29.9603C14.5259 29.0683 12.7491 27.4998 11.5933 25.498C10.4377 23.4963 9.9677 21.1732 10.2564 18.8891C10.5452 16.605 11.5763 14.4874 13.1901 12.865C14.8038 11.2425 16.91 10.2056 19.1819 9.91544C21.4538 9.62513 23.7645 10.0975 25.7555 11.2594L30.9214 2.21466Z" fill="white"/>
<path d="M2.67017 31.5C4.95691 35.5035 8.48661 38.6324 12.712 40.4015C16.9373 42.1705 21.6221 42.4809 26.0397 41.2844C30.4573 40.088 34.3609 37.4515 37.145 33.7839C39.9292 30.1164 41.4383 25.6228 41.4383 21.0001C41.4383 16.3773 39.9292 11.8836 37.145 8.21611C34.3609 4.54849 30.4573 1.91203 26.0397 0.715556C21.6221 -0.48092 16.9373 -0.170533 12.712 1.59862C8.48661 3.36765 4.95689 6.49662 2.67016 10.5L11.6663 15.75C12.8097 13.7483 14.5746 12.1839 16.6872 11.2994C18.7998 10.4147 21.1423 10.2596 23.351 10.8578C25.5599 11.456 27.5116 12.7743 28.9038 14.6081C30.2959 16.4418 31.0504 18.6886 31.0504 21.0001C31.0504 23.3114 30.2959 25.5583 28.9038 27.3921C27.5116 29.2257 25.5599 30.544 23.351 31.1422C21.1423 31.7405 18.7998 31.5853 16.6872 30.7007C14.5746 29.8162 12.8097 28.2517 11.6663 26.25L2.67017 31.5Z" fill="white" fill-opacity="0.1"/>
<path d="M56.41 22.601V20.2237H62.4777V25.8444C61.8881 26.422 61.0321 26.9321 59.9098 27.3748C58.794 27.8111 57.6623 28.0292 56.5147 28.0292C55.0563 28.0292 53.7851 27.7212 52.701 27.1053C51.6168 26.483 50.8021 25.5974 50.2569 24.4489C49.7115 23.2939 49.439 22.0395 49.439 20.6856C49.439 19.2163 49.7432 17.9105 50.3519 16.7684C50.9605 15.6262 51.8514 14.7504 53.0243 14.1409C53.9184 13.6724 55.031 13.4383 56.3625 13.4383C58.0934 13.4383 59.4439 13.8073 60.4139 14.5451C61.3904 15.2765 62.0181 16.2904 62.297 17.5864L59.5009 18.1159C59.3043 17.4228 58.9335 16.8775 58.3883 16.4797C57.8493 16.0754 57.174 15.8733 56.3625 15.8733C55.1324 15.8733 54.1529 16.2679 53.4238 17.0571C52.701 17.8464 52.3397 19.0174 52.3397 20.5701C52.3397 22.2449 52.7074 23.5025 53.4428 24.343C54.1783 25.1771 55.142 25.5942 56.3339 25.5942C56.9236 25.5942 57.5132 25.4787 58.1029 25.2477C58.6989 25.0104 59.2093 24.7248 59.634 24.3912V22.601H56.41ZM64.4464 22.5336C64.4464 21.6353 64.665 20.7659 65.1026 19.9253C65.5401 19.0848 66.1583 18.4431 66.9571 18.0004C67.7623 17.5577 68.6594 17.3362 69.6485 17.3362C71.1765 17.3362 72.4288 17.8399 73.4051 18.8473C74.3816 19.8483 74.8697 21.1156 74.8697 22.6491C74.8697 24.1954 74.3752 25.4787 73.3862 26.499C72.4033 27.5127 71.1638 28.0196 69.6676 28.0196C68.7419 28.0196 67.8573 27.8079 67.0141 27.3844C66.1772 26.9609 65.5401 26.3417 65.1026 25.5268C64.665 24.7055 64.4464 23.7077 64.4464 22.5336ZM67.1854 22.678C67.1854 23.6917 67.4231 24.4682 67.8986 25.0071C68.3741 25.5461 68.9607 25.8155 69.6581 25.8155C70.3555 25.8155 70.9388 25.5461 71.4079 25.0071C71.8834 24.4682 72.1212 23.6854 72.1212 22.6587C72.1212 21.6578 71.8834 20.8877 71.4079 20.3488C70.9388 19.8098 70.3555 19.5404 69.6581 19.5404C68.9607 19.5404 68.3741 19.8098 67.8986 20.3488C67.4231 20.8877 67.1854 21.6642 67.1854 22.678ZM86.1586 27.7886H83.4862V22.5721C83.4862 21.4684 83.4291 20.7562 83.3149 20.4354C83.2009 20.1082 83.0138 19.8547 82.7538 19.6751C82.5002 19.4954 82.1928 19.4055 81.8314 19.4055C81.3685 19.4055 80.9532 19.5339 80.5855 19.7906C80.2178 20.0472 79.9642 20.3873 79.8247 20.8108C79.6915 21.2342 79.6249 22.017 79.6249 23.1592V27.7886H76.9525V17.5673H79.4348V19.0687C80.3161 17.9138 81.4256 17.3362 82.7633 17.3362C83.353 17.3362 83.892 17.4453 84.3802 17.6635C84.8683 17.8753 85.236 18.148 85.4834 18.4816C85.737 18.8152 85.9114 19.1938 86.0064 19.6172C86.1078 20.0408 86.1586 20.6471 86.1586 21.4363V27.7886ZM87.8039 27.7886V25.6808L91.589 21.2823C92.2103 20.5638 92.67 20.0536 92.968 19.7521C92.6574 19.7712 92.2484 19.7841 91.7412 19.7906L88.1748 19.8098V17.5673H96.5249V19.4825L92.6636 23.9868L91.3037 25.4787C92.0456 25.4338 92.5052 25.4113 92.6827 25.4113H96.8197V27.7886H87.8039ZM100.614 20.6856L98.1892 20.2429C98.4619 19.2548 98.931 18.5233 99.5968 18.0485C100.263 17.5737 101.252 17.3362 102.564 17.3362C103.756 17.3362 104.644 17.4807 105.227 17.7694C105.81 18.0516 106.219 18.4142 106.454 18.8569C106.695 19.2933 106.815 20.0986 106.815 21.2727L106.787 24.4297C106.787 25.328 106.828 25.992 106.91 26.422C106.999 26.8454 107.161 27.301 107.395 27.7886H104.751C104.682 27.609 104.596 27.3428 104.495 26.9898C104.45 26.8293 104.419 26.7236 104.399 26.6722C103.943 27.1213 103.455 27.4581 102.935 27.6827C102.415 27.9073 101.86 28.0196 101.271 28.0196C100.231 28.0196 99.4098 27.7341 98.8074 27.163C98.2114 26.592 97.9134 25.8701 97.9134 24.9975C97.9134 24.42 98.0498 23.9067 98.3224 23.4575C98.595 23.0019 98.9754 22.6555 99.4637 22.4181C99.9581 22.1742 100.668 21.9625 101.594 21.7829C102.843 21.5454 103.708 21.3241 104.19 21.1187V20.8492C104.19 20.3295 104.063 19.9606 103.81 19.7425C103.556 19.5179 103.078 19.4055 102.374 19.4055C101.898 19.4055 101.527 19.5019 101.261 19.6942C100.995 19.8803 100.779 20.2108 100.614 20.6856ZM104.19 22.8801C103.848 22.9955 103.306 23.1335 102.564 23.2939C101.822 23.4544 101.337 23.6115 101.109 23.7656C100.76 24.0158 100.586 24.3334 100.586 24.7184C100.586 25.097 100.725 25.4242 101.004 25.7002C101.283 25.976 101.638 26.114 102.069 26.114C102.551 26.114 103.011 25.9535 103.448 25.6327C103.772 25.3888 103.984 25.0905 104.086 24.7376C104.155 24.5067 104.19 24.0671 104.19 23.419V22.8801ZM109.212 28.4624L112.265 28.8378C112.315 29.1971 112.433 29.4441 112.617 29.5788C112.87 29.7713 113.27 29.8675 113.815 29.8675C114.512 29.8675 115.035 29.7617 115.384 29.5499C115.619 29.4088 115.796 29.181 115.917 28.8666C115.999 28.642 116.04 28.2282 116.04 27.625V26.1331C115.241 27.2368 114.233 27.7886 113.016 27.7886C111.659 27.7886 110.584 27.2079 109.792 26.0465C109.171 25.129 108.86 23.9868 108.86 22.6202C108.86 20.907 109.266 19.5981 110.077 18.6933C110.895 17.7886 111.91 17.3362 113.121 17.3362C114.37 17.3362 115.4 17.8913 116.211 19.0013V17.5673H118.713V26.7396C118.713 27.9458 118.614 28.8474 118.418 29.4441C118.221 30.0408 117.946 30.5092 117.59 30.8493C117.235 31.1894 116.76 31.4556 116.164 31.6481C115.574 31.8406 114.826 31.9368 113.919 31.9368C112.208 31.9368 110.993 31.6385 110.277 31.0418C109.56 30.4515 109.202 29.7008 109.202 28.7896C109.202 28.6998 109.205 28.5908 109.212 28.4624ZM111.599 22.4662C111.599 23.5506 111.805 24.3462 112.217 24.8531C112.636 25.3536 113.149 25.6038 113.758 25.6038C114.411 25.6038 114.962 25.3472 115.413 24.8339C115.863 24.3142 116.088 23.5474 116.088 22.5336C116.088 21.4748 115.872 20.6889 115.441 20.1756C115.01 19.6622 114.465 19.4055 113.805 19.4055C113.165 19.4055 112.636 19.659 112.217 20.1659C111.805 20.6664 111.599 21.4332 111.599 22.4662ZM123.363 20.6856L120.938 20.2429C121.211 19.2548 121.68 18.5233 122.345 18.0485C123.011 17.5737 124.001 17.3362 125.312 17.3362C126.504 17.3362 127.393 17.4807 127.976 17.7694C128.559 18.0516 128.968 18.4142 129.203 18.8569C129.444 19.2933 129.564 20.0986 129.564 21.2727L129.535 24.4297C129.535 25.328 129.577 25.992 129.66 26.422C129.748 26.8454 129.909 27.301 130.144 27.7886H127.5C127.43 27.609 127.345 27.3428 127.243 26.9898C127.199 26.8293 127.168 26.7236 127.148 26.6722C126.691 27.1213 126.203 27.4581 125.684 27.6827C125.164 27.9073 124.609 28.0196 124.019 28.0196C122.98 28.0196 122.158 27.7341 121.556 27.163C120.96 26.592 120.662 25.8701 120.662 24.9975C120.662 24.42 120.799 23.9067 121.071 23.4575C121.344 23.0019 121.724 22.6555 122.213 22.4181C122.708 22.1742 123.417 21.9625 124.342 21.7829C125.592 21.5454 126.458 21.3241 126.939 21.1187V20.8492C126.939 20.3295 126.812 19.9606 126.559 19.7425C126.306 19.5179 125.827 19.4055 125.123 19.4055C124.648 19.4055 124.276 19.5019 124.01 19.6942C123.744 19.8803 123.528 20.2108 123.363 20.6856ZM126.939 22.8801C126.597 22.9955 126.055 23.1335 125.312 23.2939C124.571 23.4544 124.087 23.6115 123.858 23.7656C123.509 24.0158 123.335 24.3334 123.335 24.7184C123.335 25.097 123.474 25.4242 123.753 25.7002C124.032 25.976 124.388 26.114 124.819 26.114C125.301 26.114 125.76 25.9535 126.198 25.6327C126.521 25.3888 126.733 25.0905 126.834 24.7376C126.904 24.5067 126.939 24.0671 126.939 23.419V22.8801ZM149.498 27.7886H146.435L145.218 24.5836H139.645L138.495 27.7886H135.508L140.938 13.6789H143.916L149.498 27.7886ZM144.314 22.2064L142.394 16.9705L140.51 22.2064H144.314ZM159.789 20.5894L157.154 21.0706C157.066 20.538 156.862 20.1371 156.545 19.8676C156.235 19.5981 155.828 19.4634 155.328 19.4634C154.662 19.4634 154.13 19.6975 153.73 20.1659C153.336 20.6279 153.14 21.4043 153.14 22.4951C153.14 23.7077 153.34 24.5644 153.739 25.0649C154.145 25.5653 154.687 25.8155 155.366 25.8155C155.874 25.8155 156.288 25.6712 156.611 25.3825C156.934 25.0873 157.163 24.5836 157.297 23.8715L159.921 24.3238C159.648 25.5429 159.125 26.4636 158.352 27.086C157.578 27.7085 156.542 28.0196 155.243 28.0196C153.765 28.0196 152.586 27.548 151.704 26.6048C150.829 25.6616 150.391 24.3558 150.391 22.6876C150.391 21.0001 150.833 19.6879 151.713 18.7511C152.595 17.8079 153.787 17.3362 155.289 17.3362C156.52 17.3362 157.497 17.6058 158.219 18.1447C158.948 18.6773 159.472 19.4921 159.789 20.5894ZM167.672 24.5355L170.335 24.9879C169.993 25.976 169.451 26.7299 168.709 27.2497C167.973 27.763 167.051 28.0196 165.941 28.0196C164.185 28.0196 162.885 27.439 162.043 26.2776C161.377 25.3472 161.043 24.1729 161.043 22.7549C161.043 21.061 161.48 19.736 162.356 18.7799C163.231 17.8175 164.337 17.3362 165.675 17.3362C167.178 17.3362 168.364 17.8399 169.232 18.8473C170.101 19.8483 170.515 21.3851 170.478 23.4575H163.783C163.802 24.2596 164.018 24.8852 164.429 25.3343C164.841 25.777 165.355 25.9984 165.969 25.9984C166.389 25.9984 166.741 25.8829 167.025 25.6519C167.311 25.421 167.526 25.0488 167.672 24.5355ZM167.825 21.802C167.805 21.0192 167.605 20.4258 167.225 20.0216C166.844 19.6109 166.382 19.4055 165.837 19.4055C165.254 19.4055 164.772 19.6205 164.392 20.0504C164.011 20.4803 163.824 21.0642 163.829 21.802H167.825ZM171.724 24.8724L174.406 24.4585C174.52 24.9846 174.751 25.3857 175.1 25.6616C175.448 25.931 175.936 26.0659 176.565 26.0659C177.256 26.0659 177.775 25.9375 178.124 25.6808C178.358 25.5012 178.476 25.2606 178.476 24.959C178.476 24.7536 178.413 24.5836 178.285 24.4489C178.153 24.3206 177.854 24.2018 177.392 24.0928C175.237 23.6115 173.869 23.172 173.293 22.7742C172.494 22.2224 172.094 21.4556 172.094 20.4739C172.094 19.5885 172.44 18.8442 173.132 18.241C173.823 17.6378 174.894 17.3362 176.346 17.3362C177.728 17.3362 178.756 17.564 179.427 18.0196C180.099 18.4752 180.562 19.1489 180.816 20.0408L178.296 20.5124C178.188 20.1146 177.982 19.8098 177.678 19.5981C177.379 19.3864 176.951 19.2804 176.394 19.2804C175.69 19.2804 175.186 19.3799 174.881 19.5789C174.678 19.72 174.577 19.9028 174.577 20.1274C174.577 20.3199 174.665 20.4835 174.843 20.6183C175.083 20.7979 175.914 21.0514 177.335 21.3786C178.761 21.7058 179.757 22.1069 180.321 22.5817C180.879 23.0629 181.158 23.7335 181.158 24.5933C181.158 25.5301 180.771 26.3354 179.998 27.009C179.224 27.6827 178.08 28.0196 176.565 28.0196C175.189 28.0196 174.098 27.7373 173.293 27.1727C172.494 26.6081 171.971 25.8413 171.724 24.8724ZM182.565 24.8724L185.248 24.4585C185.362 24.9846 185.593 25.3857 185.941 25.6616C186.291 25.931 186.779 26.0659 187.406 26.0659C188.097 26.0659 188.618 25.9375 188.965 25.6808C189.201 25.5012 189.317 25.2606 189.317 24.959C189.317 24.7536 189.255 24.5836 189.128 24.4489C188.994 24.3206 188.697 24.2018 188.233 24.0928C186.078 23.6115 184.712 23.172 184.135 22.7742C183.335 22.2224 182.937 21.4556 182.937 20.4739C182.937 19.5885 183.282 18.8442 183.973 18.241C184.664 17.6378 185.736 17.3362 187.188 17.3362C188.569 17.3362 189.597 17.564 190.269 18.0196C190.941 18.4752 191.404 19.1489 191.657 20.0408L189.137 20.5124C189.029 20.1146 188.824 19.8098 188.519 19.5981C188.221 19.3864 187.793 19.2804 187.235 19.2804C186.531 19.2804 186.027 19.3799 185.723 19.5789C185.521 19.72 185.418 19.9028 185.418 20.1274C185.418 20.3199 185.508 20.4835 185.686 20.6183C185.926 20.7979 186.757 21.0514 188.176 21.3786C189.603 21.7058 190.599 22.1069 191.163 22.5817C191.721 23.0629 192 23.7335 192 24.5933C192 25.5301 191.613 26.3354 190.839 27.009C190.067 27.6827 188.921 28.0196 187.406 28.0196C186.031 28.0196 184.94 27.7373 184.135 27.1727C183.335 26.6081 182.813 25.8413 182.565 24.8724Z" fill="white"/>
</g>
<defs>
<clipPath id="clip0">
<rect width="192" height="42" fill="white"/>
</clipPath>
</defs>
</svg>
