<svg width="42" height="42" viewBox="0 0 42 42" fill="none" xmlns="http://www.w3.org/2000/svg">
<circle opacity="0.2" cx="21" cy="21" r="21" fill="#150F95"/>
<path d="M18.1875 12.25C18.7969 12.25 19.3242 12.4727 19.7695 12.918C20.2148 13.3633 20.4375 13.8906 20.4375 14.5V27.7188C20.4375 28.4219 20.1914 29.0195 19.6992 29.5117C19.207 30.0039 18.6094 30.25 17.9062 30.25C17.3672 30.25 16.875 30.0859 16.4297 29.7578C15.9844 29.4531 15.6797 29.043 15.5156 28.5273C15.3516 28.5508 15.2109 28.5625 15.0938 28.5625C14.3906 28.5625 13.793 28.3164 13.3008 27.8242C12.8086 27.332 12.5625 26.7344 12.5625 26.0312C12.5625 25.8672 12.5742 25.7031 12.5977 25.5391C12.082 25.3281 11.6602 24.9883 11.332 24.5195C11.0273 24.0508 10.875 23.5234 10.875 22.9375C10.875 21.8594 11.3438 21.0508 12.2812 20.5117C12.0938 20.1133 12 19.7031 12 19.2812C12 18.6953 12.1523 18.168 12.457 17.6992C12.7852 17.2305 13.2188 16.8906 13.7578 16.6797C13.7109 16.5156 13.6875 16.3516 13.6875 16.1875C13.6875 15.5781 13.9102 15.0508 14.3555 14.6055C14.8008 14.1602 15.3281 13.9375 15.9375 13.9375C15.9375 13.9375 15.9492 13.9375 15.9727 13.9375C15.9961 13.9375 16.0078 13.9375 16.0078 13.9375C16.1484 13.4453 16.418 13.0469 16.8164 12.7422C17.2148 12.4141 17.6719 12.25 18.1875 12.25ZM31.125 22.9375C31.125 23.5234 30.9609 24.0508 30.6328 24.5195C30.3281 24.9883 29.918 25.3281 29.4023 25.5391C29.4258 25.7031 29.4375 25.8672 29.4375 26.0312C29.4375 26.7344 29.1914 27.332 28.6992 27.8242C28.207 28.3164 27.6094 28.5625 26.9062 28.5625C26.7891 28.5625 26.6484 28.5508 26.4844 28.5273C26.3203 29.043 26.0156 29.4531 25.5703 29.7578C25.125 30.0859 24.6328 30.25 24.0938 30.25C23.3906 30.25 22.793 30.0039 22.3008 29.5117C21.8086 29.0195 21.5625 28.4219 21.5625 27.7188V14.5C21.5625 13.8672 21.7852 13.3398 22.2305 12.918C22.6758 12.4727 23.2031 12.25 23.8125 12.25C24.3281 12.25 24.7852 12.4141 25.1836 12.7422C25.582 13.0469 25.8516 13.4453 25.9922 13.9375C25.9922 13.9375 26.0039 13.9375 26.0273 13.9375C26.0508 13.9375 26.0625 13.9375 26.0625 13.9375C26.6719 13.9375 27.1992 14.1602 27.6445 14.6055C28.0898 15.0508 28.3125 15.5781 28.3125 16.1875C28.3125 16.3281 28.2891 16.4922 28.2422 16.6797C28.7812 16.8906 29.2031 17.2305 29.5078 17.6992C29.8359 18.168 30 18.6953 30 19.2812C30 19.7031 29.9062 20.1133 29.7188 20.5117C30.6562 21.0508 31.125 21.8594 31.125 22.9375Z" fill="#150F95"/>
</svg>
