<svg width="42" height="42" viewBox="0 0 42 42" fill="none" xmlns="http://www.w3.org/2000/svg">
<circle opacity="0.2" cx="21" cy="21" r="21" fill="#150F95"/>
<path d="M19.4766 21.6562C19.4766 21.9688 19.3724 22.2292 19.1641 22.4375C18.9557 22.6458 18.6953 22.75 18.3828 22.75C18.0703 22.75 17.8099 22.6458 17.6016 22.4375C17.3932 22.2292 17.2891 21.9688 17.2891 21.6562C17.2891 20.7969 17.5885 20.0677 18.1875 19.4688C18.8125 18.8438 19.5547 18.5312 20.4141 18.5312C21.2734 18.5312 22.0026 18.8438 22.6016 19.4688C23.2266 20.0677 23.5391 20.7969 23.5391 21.6562C23.5391 21.9688 23.4349 22.2292 23.2266 22.4375C23.0182 22.6458 22.7578 22.75 22.4453 22.75C22.1328 22.75 21.8724 22.6458 21.6641 22.4375C21.4557 22.2292 21.3516 21.9688 21.3516 21.6562C21.3516 21.3958 21.2604 21.1745 21.0781 20.9922C20.8958 20.8099 20.6745 20.7188 20.4141 20.7188C20.1536 20.7188 19.9323 20.8099 19.75 20.9922C19.5677 21.1745 19.4766 21.3958 19.4766 21.6562ZM15.5312 16.8125C16.8854 15.4583 18.513 14.7812 20.4141 14.7812C22.3151 14.7812 23.9297 15.4583 25.2578 16.8125C26.612 18.1406 27.2891 19.7552 27.2891 21.6562C27.2891 22.3594 27.1849 22.9974 26.9766 23.5703C26.7943 24.1172 26.5599 24.5599 26.2734 24.8984C26.013 25.237 25.7396 25.5365 25.4531 25.7969C25.1927 26.0573 24.9583 26.3177 24.75 26.5781C24.5677 26.8125 24.4766 27.0469 24.4766 27.2812C24.4766 28.4531 24.0599 29.4427 23.2266 30.25C22.4193 31.0833 21.4297 31.5 20.2578 31.5C19.9453 31.5 19.6849 31.3958 19.4766 31.1875C19.2682 30.9792 19.1641 30.7188 19.1641 30.4062C19.1641 30.0938 19.2682 29.8333 19.4766 29.625C19.6849 29.4167 19.9453 29.3125 20.2578 29.3125C20.8307 29.3125 21.3125 29.1172 21.7031 28.7266C22.0938 28.3359 22.2891 27.8542 22.2891 27.2812C22.2891 26.6302 22.4323 26.0703 22.7188 25.6016C23.0312 25.1068 23.3568 24.7422 23.6953 24.5078C24.0599 24.2474 24.3854 23.8698 24.6719 23.375C24.9583 22.8802 25.1016 22.3073 25.1016 21.6562C25.1016 20.3542 24.6458 19.2474 23.7344 18.3359C22.8229 17.4245 21.7161 16.9688 20.4141 16.9688C19.112 16.9688 18.0052 17.4245 17.0938 18.3359C16.1823 19.2474 15.7266 20.3542 15.7266 21.6562C15.7266 21.9688 15.6224 22.2292 15.4141 22.4375C15.2057 22.6458 14.9453 22.75 14.6328 22.75C14.3203 22.75 14.0599 22.6458 13.8516 22.4375C13.6432 22.2292 13.5391 21.9688 13.5391 21.6562C13.5391 19.7552 14.2031 18.1406 15.5312 16.8125ZM30.8828 12.75C31.1172 12.9583 31.1172 13.1797 30.8828 13.4141L27.4844 16.8125C27.276 17.0208 27.0547 17.0208 26.8203 16.8125L25.7266 15.7188C25.5182 15.4844 25.5182 15.263 25.7266 15.0547L29.125 11.6562C29.3594 11.4219 29.5807 11.4219 29.7891 11.6562L30.8828 12.75ZM17.6406 23.8047L18.7344 24.8984C18.9688 25.1328 18.9688 25.3542 18.7344 25.5625L12.9531 31.3438C12.849 31.4479 12.7318 31.5 12.6016 31.5C12.4714 31.5 12.3672 31.4479 12.2891 31.3438L11.1953 30.25C10.9609 30.0417 10.9609 29.8203 11.1953 29.5859L16.9766 23.8047C17.1849 23.5703 17.4062 23.5703 17.6406 23.8047Z" fill="#150F95"/>
</svg>
