<svg width="42" height="42" viewBox="0 0 42 42" fill="none" xmlns="http://www.w3.org/2000/svg">
<circle opacity="0.2" cx="21" cy="21" r="21" fill="#150F95"/>
<path d="M12.7734 25.6797C12.3047 25.2344 12.0586 24.6836 12.0352 24.0273C12.0117 23.3711 12.2227 22.8086 12.668 22.3398C13.0898 21.8945 13.6055 21.6484 14.2148 21.6016C14.8477 21.5547 15.4102 21.7305 15.9023 22.1289L14.8125 17.3477C14.6484 16.6211 14.7891 15.9648 15.2344 15.3789C15.7031 14.793 16.3125 14.4883 17.0625 14.4648C17.0859 13.9492 17.2617 13.4922 17.5898 13.0938C17.9414 12.6953 18.375 12.4375 18.8906 12.3203C19.5234 12.1797 20.1094 12.2852 20.6484 12.6367C21.2109 12.9648 21.5625 13.4453 21.7031 14.0781L22.4766 18.7188L23.0742 15.0273C23.2148 14.3945 23.5664 13.9141 24.1289 13.5859C24.6914 13.2344 25.2891 13.1406 25.9219 13.3047C26.3906 13.4219 26.7773 13.6562 27.082 14.0078C27.3867 14.3594 27.5859 14.7578 27.6797 15.2031C28.4297 15.2031 29.0391 15.5078 29.5078 16.1172C30 16.7031 30.1523 17.3711 29.9648 18.1211L28.8398 22.7969C28.8164 22.9375 28.8047 23.0781 28.8047 23.2188V24.5195C28.8047 24.918 28.7461 25.3047 28.6289 25.6797L27.5039 29.4414C27.4336 29.6758 27.293 29.8633 27.082 30.0039C26.8945 30.168 26.6836 30.25 26.4492 30.25H18.082C17.7773 30.25 17.5195 30.1445 17.3086 29.9336L12.7734 25.6797ZM14.3555 23.2891C14.1914 23.2891 14.0391 23.3594 13.8984 23.5C13.7812 23.6406 13.7227 23.8047 13.7227 23.9922C13.7227 24.1562 13.793 24.3086 13.9336 24.4492L18.293 28.5625H26.0273L27.0117 25.1875C27.082 24.9766 27.1172 24.7539 27.1172 24.5195V23.2188C27.1172 22.9375 27.1523 22.668 27.2227 22.4102L28.3125 17.6992C28.3828 17.4414 28.3242 17.2305 28.1367 17.0664C27.9492 16.9023 27.7266 16.8555 27.4688 16.9258C27.2344 16.9727 27.0938 17.1367 27.0469 17.418L26.0977 21.3906C26.0273 21.6719 25.8398 21.8125 25.5352 21.8125H25.1836C25.0195 21.8125 24.8789 21.7422 24.7617 21.6016C24.6445 21.4609 24.6094 21.2969 24.6562 21.1094L25.9922 15.7656C26.0391 15.6016 26.0273 15.4492 25.957 15.3086C25.8867 15.168 25.793 15.0742 25.6758 15.0273C25.5586 14.957 25.4297 14.9219 25.2891 14.9219C25.1719 14.9219 25.0547 14.9688 24.9375 15.0625C24.8203 15.1328 24.7383 15.25 24.6914 15.4141L23.2148 21.3906C23.1445 21.6719 22.957 21.8125 22.6523 21.8125H22.1953C21.8906 21.8125 21.7031 21.6719 21.6328 21.3906L20.0508 14.4648C19.9805 14.1836 19.8281 14.0195 19.5938 13.9727C19.3594 13.9023 19.1367 13.9492 18.9258 14.1133C18.7383 14.2773 18.6797 14.4883 18.75 14.7461L20.2266 21.1094C20.25 21.2031 20.25 21.2969 20.2266 21.3906C20.2031 21.4609 20.168 21.5312 20.1211 21.6016C20.0742 21.6719 20.0039 21.7305 19.9102 21.7773C19.8398 21.8008 19.7578 21.8125 19.6641 21.8125H19.3828C19.0781 21.8125 18.8906 21.6719 18.8203 21.3906L17.7656 16.6797C17.6953 16.3984 17.5312 16.2344 17.2734 16.1875C17.0391 16.1172 16.8281 16.1641 16.6406 16.3281C16.4531 16.4922 16.3828 16.7031 16.4297 16.9609L17.6602 22.2344C17.6602 22.2812 17.6602 22.3281 17.6602 22.375V24.8008C17.6602 25.0586 17.543 25.2344 17.3086 25.3281C17.0977 25.4219 16.8984 25.3867 16.7109 25.2227L14.8477 23.4648C14.707 23.3477 14.543 23.2891 14.3555 23.2891Z" fill="#150F95"/>
</svg>
